<mxfile host="Electron" modified="2024-03-01T04:14:58.226Z" agent="Mozilla/5.0 (Windows NT 10.0; Win64; x64) AppleWebKit/537.36 (KHTML, like Gecko) draw.io/22.1.18 Chrome/120.0.6099.199 Electron/28.1.2 Safari/537.36" etag="hNI_mefu7KquRiYG-Yis" version="22.1.18" type="device">
  <diagram name="Page-1" id="q0JfDx38g7OWOcSL9ebx">
    <mxGraphModel dx="1195" dy="703" grid="1" gridSize="10" guides="1" tooltips="1" connect="1" arrows="1" fold="1" page="1" pageScale="1" pageWidth="850" pageHeight="1100" math="0" shadow="0">
      <root>
        <mxCell id="0" />
        <mxCell id="1" parent="0" />
        <mxCell id="ono6xVnc9VgaWgb0txfM-1" value="" style="rounded=0;whiteSpace=wrap;html=1;" parent="1" vertex="1">
          <mxGeometry x="170" y="200" width="350" height="330" as="geometry" />
        </mxCell>
        <mxCell id="ono6xVnc9VgaWgb0txfM-16" style="edgeStyle=orthogonalEdgeStyle;rounded=0;orthogonalLoop=1;jettySize=auto;html=1;entryX=0;entryY=0.5;entryDx=0;entryDy=0;" parent="1" source="ono6xVnc9VgaWgb0txfM-2" target="ono6xVnc9VgaWgb0txfM-6" edge="1">
          <mxGeometry relative="1" as="geometry">
            <Array as="points">
              <mxPoint x="350" y="360" />
              <mxPoint x="350" y="360" />
            </Array>
          </mxGeometry>
        </mxCell>
        <mxCell id="ono6xVnc9VgaWgb0txfM-2" value="REGISTER ARRAY" style="rounded=0;whiteSpace=wrap;html=1;fillColor=default;strokeColor=default;" parent="1" vertex="1">
          <mxGeometry x="210" y="230" width="100" height="170" as="geometry" />
        </mxCell>
        <mxCell id="ono6xVnc9VgaWgb0txfM-3" value="" style="shape=flexArrow;endArrow=classic;html=1;rounded=0;entryX=0;entryY=0.5;entryDx=0;entryDy=0;" parent="1" edge="1">
          <mxGeometry width="50" height="50" relative="1" as="geometry">
            <mxPoint x="70" y="313" as="sourcePoint" />
            <mxPoint x="210" y="312.5" as="targetPoint" />
          </mxGeometry>
        </mxCell>
        <mxCell id="ono6xVnc9VgaWgb0txfM-4" value="&lt;b&gt;INPUT&lt;/b&gt;" style="text;html=1;align=center;verticalAlign=middle;resizable=0;points=[];autosize=1;strokeColor=none;fillColor=none;" parent="1" vertex="1">
          <mxGeometry x="80" y="280" width="60" height="30" as="geometry" />
        </mxCell>
        <mxCell id="ono6xVnc9VgaWgb0txfM-8" style="edgeStyle=orthogonalEdgeStyle;rounded=0;orthogonalLoop=1;jettySize=auto;html=1;" parent="1" source="ono6xVnc9VgaWgb0txfM-6" edge="1">
          <mxGeometry relative="1" as="geometry">
            <mxPoint x="610" y="360" as="targetPoint" />
          </mxGeometry>
        </mxCell>
        <mxCell id="ono6xVnc9VgaWgb0txfM-6" value="COMPARATOR" style="rounded=0;whiteSpace=wrap;html=1;" parent="1" vertex="1">
          <mxGeometry x="385" y="230" width="95" height="260" as="geometry" />
        </mxCell>
        <mxCell id="ono6xVnc9VgaWgb0txfM-9" value="Zmax" style="text;html=1;align=center;verticalAlign=middle;resizable=0;points=[];autosize=1;strokeColor=none;fillColor=none;" parent="1" vertex="1">
          <mxGeometry x="550" y="330" width="50" height="30" as="geometry" />
        </mxCell>
        <mxCell id="ono6xVnc9VgaWgb0txfM-14" value="data" style="text;html=1;align=center;verticalAlign=middle;resizable=0;points=[];autosize=1;strokeColor=none;fillColor=none;" parent="1" vertex="1">
          <mxGeometry x="320" y="330" width="50" height="30" as="geometry" />
        </mxCell>
        <mxCell id="ono6xVnc9VgaWgb0txfM-17" value="" style="endArrow=classic;html=1;rounded=0;" parent="1" edge="1">
          <mxGeometry width="50" height="50" relative="1" as="geometry">
            <mxPoint x="200" y="160" as="sourcePoint" />
            <mxPoint x="270" y="200" as="targetPoint" />
            <Array as="points">
              <mxPoint x="270" y="160" />
            </Array>
          </mxGeometry>
        </mxCell>
        <mxCell id="ono6xVnc9VgaWgb0txfM-18" value="" style="endArrow=classic;html=1;rounded=0;entryX=0.433;entryY=0.006;entryDx=0;entryDy=0;entryPerimeter=0;" parent="1" target="ono6xVnc9VgaWgb0txfM-1" edge="1">
          <mxGeometry width="50" height="50" relative="1" as="geometry">
            <mxPoint x="200" y="120" as="sourcePoint" />
            <mxPoint x="320" y="198" as="targetPoint" />
            <Array as="points">
              <mxPoint x="320" y="120" />
            </Array>
          </mxGeometry>
        </mxCell>
        <mxCell id="ono6xVnc9VgaWgb0txfM-19" value="clock" style="text;html=1;align=center;verticalAlign=middle;resizable=0;points=[];autosize=1;strokeColor=none;fillColor=none;" parent="1" vertex="1">
          <mxGeometry x="185" y="90" width="50" height="30" as="geometry" />
        </mxCell>
        <mxCell id="ono6xVnc9VgaWgb0txfM-21" value="reset" style="text;html=1;align=center;verticalAlign=middle;resizable=0;points=[];autosize=1;strokeColor=none;fillColor=none;" parent="1" vertex="1">
          <mxGeometry x="185" y="135" width="50" height="30" as="geometry" />
        </mxCell>
        <mxCell id="nxB8Vy-VdlWEIKbthkuu-2" style="edgeStyle=orthogonalEdgeStyle;rounded=0;orthogonalLoop=1;jettySize=auto;html=1;entryX=0.5;entryY=1;entryDx=0;entryDy=0;" edge="1" parent="1" source="nxB8Vy-VdlWEIKbthkuu-1" target="ono6xVnc9VgaWgb0txfM-2">
          <mxGeometry relative="1" as="geometry" />
        </mxCell>
        <mxCell id="nxB8Vy-VdlWEIKbthkuu-1" value="COUNTER" style="rounded=0;whiteSpace=wrap;html=1;" vertex="1" parent="1">
          <mxGeometry x="210" y="440" width="100" height="50" as="geometry" />
        </mxCell>
        <mxCell id="nxB8Vy-VdlWEIKbthkuu-3" style="edgeStyle=orthogonalEdgeStyle;rounded=0;orthogonalLoop=1;jettySize=auto;html=1;entryX=0.018;entryY=0.902;entryDx=0;entryDy=0;entryPerimeter=0;" edge="1" parent="1" source="nxB8Vy-VdlWEIKbthkuu-1" target="ono6xVnc9VgaWgb0txfM-6">
          <mxGeometry relative="1" as="geometry" />
        </mxCell>
        <mxCell id="nxB8Vy-VdlWEIKbthkuu-4" value="" style="endArrow=classic;html=1;rounded=0;exitX=1;exitY=0.685;exitDx=0;exitDy=0;exitPerimeter=0;" edge="1" parent="1" source="ono6xVnc9VgaWgb0txfM-1">
          <mxGeometry width="50" height="50" relative="1" as="geometry">
            <mxPoint x="580" y="450" as="sourcePoint" />
            <mxPoint x="610" y="426" as="targetPoint" />
          </mxGeometry>
        </mxCell>
        <mxCell id="nxB8Vy-VdlWEIKbthkuu-5" value="done_signal" style="text;html=1;align=center;verticalAlign=middle;resizable=0;points=[];autosize=1;strokeColor=none;fillColor=none;" vertex="1" parent="1">
          <mxGeometry x="530" y="400" width="90" height="30" as="geometry" />
        </mxCell>
      </root>
    </mxGraphModel>
  </diagram>
</mxfile>
